<svg width="2074" height="1350" viewBox="0 0 2074 1350" fill="none" xmlns="http://www.w3.org/2000/svg">
<g clip-path="url(#clip0_26_3)">
<path d="M618.3 738.3H509.7V878.3H359.2V738.3H0V634.5L314.4 211.5H476.4L184.8 612.6H363.9V487.7H509.7V612.5H618.3V738.3Z" fill="white"/>
<path d="M2073.3 738.3H1964.7V878.3H1814.2V738.3H1455V634.5L1769.4 211.5H1931.4L1639.9 612.6H1819V487.7H1964.8V612.5H2073.4V738.3H2073.3Z" fill="white"/>
<path d="M1282.1 292.7C1243.7 355.3 1174.9 384.9 1100 374.1C1094.4 373.3 1088.8 372.3 1083.2 371C1001.9 352.9 945.2 293.9 936.5 215.6C952.1 240.2 983.6 261.8 1022.1 278.3C1107.6 315.3 1227.4 327.4 1282.1 292.7Z" fill="#828CA0"/>
<path opacity="0.1" d="M1271.9 338.2C1233.5 400.8 1164.7 430.4 1089.8 419.6C1084.2 418.8 1078.6 417.8 1073 416.5C991.7 398.4 935 339.4 926.3 261.1C941.9 285.7 973.4 307.3 1011.9 323.8C1097.5 360.8 1217.3 372.9 1271.9 338.2Z" fill="black"/>
<path fill-rule="evenodd" clip-rule="evenodd" d="M858.4 849.5C854.3 851.5 846.6 844.7 839 835.2C837.2 821.5 821.5 788.7 810.5 777.2C807.8 765.6 807.7 755.7 811.8 753.7C819.1 750.1 835.5 768.7 848.3 795.1C861.1 821.6 865.7 845.9 858.4 849.5Z" fill="#2D3246"/>
<path fill-rule="evenodd" clip-rule="evenodd" d="M1085.2 900.1C1088.1 903.7 1097.9 900.8 1108.9 895.4C1116.4 883.7 1144.5 860.8 1159.3 855C1166.7 845.6 1171 836.7 1168.2 833.2C1163.1 826.9 1140.4 836.7 1117.5 855.2C1094.5 873.7 1080.1 893.7 1085.2 900.1Z" fill="#2D3246"/>
<path d="M1236.4 1110.41C1262.73 1098.95 1238.63 985.309 1182.57 856.598C1126.51 727.888 1059.72 632.844 1033.39 644.311C1007.06 655.779 1031.16 769.415 1087.22 898.126C1143.28 1026.84 1210.07 1121.88 1236.4 1110.41Z" fill="#00E2FF" fill-opacity="0.67"/>
<path d="M862.246 847.938C967.694 755.252 1037.81 662.628 1018.85 641.058C999.885 619.487 899.033 677.137 793.585 769.823C688.138 862.509 618.026 955.133 636.986 976.703C655.946 998.274 756.799 940.624 862.246 847.938Z" fill="#00E2FF" fill-opacity="0.67"/>
<path fill-rule="evenodd" clip-rule="evenodd" d="M1030.6 925.3C1029.4 930.9 1016 933.2 1001 933.3C982.5 923.9 937 914.6 916.8 915.5C903.3 909 897.1 901.4 898.3 895.8C900.5 885.7 932 884.2 968.5 892.3C1005.1 900.4 1032.9 915.2 1030.6 925.3Z" fill="#2D3246"/>
<path d="M1055.19 972.207C1104.31 751.959 1099.57 563.471 1044.59 551.208C989.605 538.944 905.209 707.548 856.082 927.796C806.955 1148.04 811.701 1336.53 866.682 1348.79C921.663 1361.06 1006.06 1192.45 1055.19 972.207Z" fill="#00E2FF" fill-opacity="0.67"/>
<path d="M1348.1 515.3L1347.9 516.2C1345.7 526.2 1343.1 536.4 1340.1 546.7C1309.5 653 1241.5 769.8 1161.9 847.4C1133.9 855.5 1110.2 868.6 1102.7 896C1075.9 913.9 1048.6 926.5 1021.5 932.2C1018.2 932.9 1015 933.5 1011.7 934C1005.8 934.9 1002 931.3 997.2 927.7C989.6 922 976.2 919.1 963.3 916.2C950.4 913.3 936 910.6 926.7 912.5C920.8 913.7 916.9 915.1 911.9 911.8C909.2 910 906.5 908 903.8 906C881.4 889.1 861.8 865.6 845 837.5C849.3 811.3 836.7 783.8 813.4 771.2C774 667.5 761.8 532.9 779 423.3C780.4 414.6 781.9 406.1 783.7 397.7C784.2 395.3 784.7 392.9 785.2 390.6C801.3 318.6 829.3 271.2 866.1 241.8C866.9 241.1 867.7 240.5 868.6 239.9C885.2 227.1 903.5 217.8 923.3 211.5C931.7 208.8 940.6 214 942.4 222.6C957.2 292.6 1011.4 351.1 1085.8 367.7C1160.2 384.3 1234.2 354.4 1277.3 297.3C1282.6 290.3 1292.8 289.4 1299.3 295.4C1314.9 309.8 1327.7 326.4 1337.4 345.6C1339.3 349.3 1341 353.1 1342.6 357C1359.3 397.6 1362.7 449.2 1348.1 515.3Z" fill="#D8D7DC"/>
<path d="M1205.8 775.7C1204.9 778.6 1203.6 781.2 1202 783.6C1220.7 723.1 1217 666.7 1196.2 613.8C1192.5 604.3 1183.4 596 1172.5 592C1087.2 560.4 1001.7 541.3 911 533.7C899.4 532.7 887.6 536.4 880.2 543.4C838.9 582.4 811.2 631.7 802.3 694.3C801.9 691.6 801.8 688.7 802.2 685.8C810.5 622.9 838.5 573.9 880.7 535.5C888.1 528.7 900 525.3 911.6 526.3C1002.8 534.4 1088.7 553.6 1174.7 585C1185.7 589 1194.9 597.2 1198.8 606.4C1220.7 659 1225 715.3 1205.8 775.7Z" fill="#2D3246"/>
<path opacity="0.1" d="M1343 515.1C1318.1 626.6 1246.3 755.8 1163.3 839C1160.7 841.6 1157.6 843.4 1154.1 844.5C1134.5 850.9 1111 862.2 1100.6 886.6C1098.8 890.9 1095.7 894.6 1091.7 897C1067.3 912.2 1043.4 922.4 1020.4 927.2C1017.2 927.9 1014 928.5 1010.9 928.9C1010.1 929 1009.3 929 1008.5 928.8C1006.4 928.3 1004.3 926.7 1001.8 924.8C1001.2 924.4 1000.7 923.9 1000.1 923.5C991.7 917.2 978 914.2 964.8 911.2L964.3 911.1C950.2 907.9 935.7 905.3 925.6 907.3C924.9 907.4 924.3 907.6 923.6 907.7C920.7 908.3 918.6 908.8 916.9 908.4C916.1 908.2 915.4 907.9 914.5 907.3C911.9 905.6 909.2 903.7 906.7 901.7C887.7 887.3 870 867.5 854.2 842.8C851.7 838.9 850.4 834.3 850.6 829.6C850.6 829.5 850.6 829.4 850.6 829.3C851 818.1 859.5 808.9 870.6 807.5C1011.8 790.1 1132.6 688.3 1164.7 544.3C1173.3 505.6 1174.9 466.8 1170.1 429.5C1166.3 399.6 1182.5 370.9 1209.7 357.9C1237.2 344.8 1261.8 325.2 1280.8 300C1283.1 296.9 1287.1 295.5 1290.9 296.3C1292.6 296.7 1294.1 297.5 1295.4 298.7C1349 348.4 1364.5 419.1 1343 515.1Z" fill="black"/>
<path fill-rule="evenodd" clip-rule="evenodd" d="M1023.4 935.2L1016.7 936.2C1010.2 937.2 1003.6 935.4 998.3 931.4C992.3 926.9 984.2 922.9 974.9 919.7C971.2 918.5 967.3 917.4 963.2 916.5C948.9 913.3 935.4 913 925.1 915.1C918.6 916.4 911.9 915.2 906.4 911.6L900.7 907.8C899 906.7 899.1 904.1 901 903.2C916.9 895 941.4 892.7 967.2 898.4C972.5 899.6 977.5 901 982.4 902.7C1001.3 909.3 1016.5 919.5 1025.2 930.8C1026.4 932.6 1025.4 935 1023.4 935.2Z" fill="#B3B3B3"/>
<path fill-rule="evenodd" clip-rule="evenodd" d="M982.4 902.8C980.9 909.1 978.3 914.8 974.9 919.8C971.2 918.6 967.3 917.5 963.2 916.6C948.9 913.4 935.4 913.1 925.1 915.2C918.6 916.5 911.9 915.3 906.4 911.7L900.7 907.9C899 906.8 899.1 904.2 901 903.3C916.9 895.1 941.4 892.8 967.2 898.5C972.5 899.6 977.5 901.1 982.4 902.8Z" fill="#CCCCCC"/>
<path fill-rule="evenodd" clip-rule="evenodd" d="M1091 902.1C1090.7 903.7 1092.2 905 1093.7 904.5L1098.8 902.9C1103.7 901.3 1107.7 897.7 1110.1 893.1C1113.1 887.3 1118 881 1124.3 875C1126 873.4 1127.8 871.9 1129.6 870.4C1138.6 863.2 1148 858.3 1155.9 856.1C1160.9 854.8 1165.3 851.6 1167.8 847.1L1170.5 842.4C1171.3 841 1170.3 839.3 1168.7 839.2C1154.6 838.9 1136.6 845.8 1120.3 858.9C1117.4 861.2 1114.7 863.7 1112.1 866.2C1100.8 877.9 1093.3 890.8 1091 902.1Z" fill="#B3B3B3"/>
<path fill-rule="evenodd" clip-rule="evenodd" d="M1112.4 866.4C1116 869.8 1120 872.7 1124.4 875.1C1126.1 873.5 1127.9 872 1129.7 870.5C1138.7 863.3 1148.1 858.4 1156 856.2C1161 854.9 1165.4 851.7 1167.9 847.2L1170.6 842.5C1171.4 841.1 1170.4 839.4 1168.8 839.3C1154.7 839 1136.7 845.9 1120.4 859C1117.6 861.4 1114.9 863.9 1112.4 866.4Z" fill="#CCCCCC"/>
<path fill-rule="evenodd" clip-rule="evenodd" d="M852.2 848.8C851.8 850.4 849.9 850.9 848.7 849.8L844.8 846.2C841 842.7 838.9 837.7 838.7 832.5C838.5 826 836.7 818.2 833.5 810.1C832.6 808 831.7 805.8 830.7 803.7C825.7 793.4 819.2 784.9 812.9 779.6C808.9 776.3 806.3 771.6 805.9 766.4L805.4 761C805.3 759.4 806.9 758.2 808.4 758.9C821.3 764.6 834.7 778.5 843.8 797.3C845.4 800.7 846.9 804 848.1 807.4C853.7 822.7 855 837.6 852.2 848.8Z" fill="#B3B3B3"/>
<path fill-rule="evenodd" clip-rule="evenodd" d="M848.1 807.4C843.4 808.9 838.5 809.9 833.5 810.1C832.6 808 831.7 805.8 830.7 803.7C825.7 793.4 819.2 784.9 812.9 779.6C808.9 776.3 806.3 771.6 805.9 766.4L805.4 761C805.3 759.4 806.9 758.2 808.4 758.9C821.3 764.6 834.7 778.5 843.8 797.3C845.4 800.7 846.8 804.1 848.1 807.4Z" fill="#CCCCCC"/>
<path opacity="0.8" d="M882.7 239.9C893.5 230.9 907.4 224.3 922.2 219.2C929.6 216.7 934.4 225.2 926.6 228.3C915.4 232.7 891.9 241.8 885.5 245.3C881.9 247.2 877.2 244.4 882.7 239.9Z" fill="white"/>
<path d="M792.8 422.2C788.3 423.7 783.6 424.1 779 423.3C780.4 414.6 781.9 406.1 783.7 397.7C798.5 339.1 827.1 285.8 866.1 241.8C866.9 241.1 867.7 240.5 868.6 239.9C872.5 243.8 875.1 248.8 876.3 254.2C890 321.9 858.3 400.3 792.8 422.2Z" fill="#2D3246"/>
<path d="M776.8 413.1C739.8 398.5 713.6 362.1 714.5 319.5C715.5 268.7 755.9 226.5 806.6 223.3C826.6 222 845.4 226.8 861.4 235.9C868.2 239.8 873.1 246.4 874.7 254.1C887.9 318.4 857.8 392.8 795.6 413.6C789.5 415.6 782.8 415.4 776.8 413.1Z" fill="#C6C3CA"/>
<path opacity="0.1" d="M795.6 410C789.7 412 783.3 411.8 777.5 409.5C750.5 398.9 729.5 376.2 721.3 348C720 343.7 724.8 340.9 728.6 343.3C769.7 370.2 841.8 327.4 853 257.5C854.6 247.7 868.5 246 871.6 255.4C871.7 255.7 871.8 256 871.9 256.3C884.5 318.3 855.5 390 795.6 410Z" fill="black"/>
<path opacity="0.8" d="M720.4 312.5C721.8 283.4 755.6 233.4 807.9 229.4C820.1 228.5 823.7 241.3 806.5 246.3C780.4 253.9 741.5 282 733.2 312.2C729.8 325 719.9 323.3 720.4 312.5Z" fill="white"/>
<path d="M1348.1 515.3L1347.9 516.2C1345.7 526.2 1343.1 536.4 1340.1 546.7C1335.3 545.4 1330.8 542.9 1327.2 539.5C1276.5 490.9 1278 410.6 1324.8 354.5C1328.1 350.5 1332.4 347.5 1337.2 345.7C1339.1 349.4 1340.8 353.2 1342.4 357.1C1355.5 408.1 1357.8 462.1 1348.1 515.3Z" fill="#2D3246"/>
<path d="M1346.3 540.2C1385.9 542.9 1425.1 521.5 1442.7 482.8C1463.8 436.6 1445.6 381 1401.3 356.2C1383.8 346.4 1364.7 342.5 1346.2 343.8C1338.5 344.3 1331.3 348.1 1326.3 354C1281.2 408.1 1279.7 485.6 1328.6 532.4C1333.5 536.9 1339.7 539.7 1346.3 540.2Z" fill="#C6C3CA"/>
<path opacity="0.1" d="M1347 537.1C1340.6 536.6 1334.6 534 1330 529.5C1282.7 484.2 1284.1 409.3 1327.8 357V356.9C1329.4 355 1332.5 356.3 1332.2 358.8C1328.1 394.8 1339.2 431 1366.6 457.3C1371.2 461.7 1377.2 464.4 1383.6 464.9C1396.4 465.8 1409.1 464.1 1421 460C1433.9 455.6 1446 468.8 1440.4 481.2C1440.3 481.3 1440.3 481.4 1440.2 481.6C1423.2 519 1385.3 539.8 1347 537.1Z" fill="black"/>
<path opacity="0.8" d="M1368.6 350C1400.3 357.7 1422.7 377.4 1431 392.2C1439.3 407 1427.4 409.6 1420.8 400C1414.1 390.4 1388.3 367.7 1364.9 359.4C1357.6 356.9 1359.8 347.9 1368.6 350Z" fill="white"/>
<path d="M1389.1 727.4C1373.6 727.3 1361 714.6 1361.1 699.1L1362.1 515.5C1362.2 500 1374.9 487.4 1390.4 487.5C1405.9 487.6 1418.5 500.3 1418.4 515.8L1417.4 699.4C1417.3 715 1404.7 727.5 1389.1 727.4Z" fill="#2D3246"/>
<path opacity="0.3" d="M1363.8 517.1L1362.8 694.5C1362.7 708.2 1372.7 719.6 1385.9 721.5C1385.7 720.2 1385.6 718.8 1385.6 717.4L1386.6 540C1386.7 525 1398.9 512.9 1413.9 513C1416 513 1417.5 511 1416.8 509C1415 503.5 1411.5 498.7 1407 495.4C1402.5 492.1 1397 490.2 1391.1 490.2C1376.1 490 1363.9 502.1 1363.8 517.1Z" fill="black"/>
<path opacity="0.5" d="M1412.2 639.3L1413.3 530.1C1413.3 528.7 1412.2 527.6 1410.9 527.6C1409.6 527.6 1408.5 528.7 1408.5 530L1407 639.1C1407 640.2 1407.7 641.2 1408.8 641.5L1409.3 641.6C1410.7 642 1412.2 640.9 1412.2 639.3Z" fill="white"/>
<path d="M1297.3 220C1294.8 229.2 1291.6 238 1287.8 246.4C1286.8 248.6 1285.8 250.7 1284.7 252.8C1248.2 325.2 1164.7 364.5 1083.4 342.5C1002.3 320.5 950.2 244.7 955 163.9C955 163.7 955 163.5 955 163.3C955.7 151.8 957.6 140.2 960.8 128.6C977.8 65.8999 1027 20.4999 1085.7 5.39991C1086.5 5.19991 1087.4 4.99991 1088.2 4.79991C1115.7 -1.80009 1145.3 -1.80009 1174.6 6.09991C1206.6 14.7999 1234 31.7999 1255.3 54.1999C1255.9 54.7999 1256.4 55.3999 1257 55.9999C1296.4 98.5999 1313.6 159.9 1297.3 220Z" fill="#D8D7DC"/>
<path d="M1059.2 95.7001C1118.5 103.2 1175.4 118.9 1229.9 142.8C1258.4 155.3 1272.3 187.9 1261.7 217.1C1253.3 240 1243.4 261.7 1231.7 282C1219.2 303.6 1191.3 317 1166.9 322.5C1114.9 334.1 1066.3 321.1 1021.4 281.9C1002.7 265.6 986 239.2 986.3 214.4C986.6 190.7 989.1 167.2 993.5 143.8C999.3 112.9 1028 91.7001 1059.2 95.7001Z" fill="#141E28"/>
<path d="M1094 314.7C1069.9 308.1 1046.4 295.1 1024.2 276C1008.2 262.2 989.5 237 989.8 211.4C990 188.8 992.3 165.6 996.6 142.4C1002 113.4 1029.5 93.6 1059.1 97.5C1087.7 101.2 1116.1 106.9 1143.6 114.3C1172.6 122.2 1201.4 132.3 1229.2 144.4C1256.5 156.3 1269.9 187 1259.9 214.4C1251.5 237.2 1241.6 258.5 1230.4 277.7C1215.1 304 1178.4 313.7 1167.5 316C1142.1 321.5 1117.4 321 1094 314.7Z" fill="#2D3246"/>
<path d="M1196.4 195.3C1197.4 191.5 1201.3 189.3 1205.1 190.4C1208.9 191.4 1211.1 195.3 1210 199.1C1209 202.9 1205.1 205.1 1201.3 204C1197.6 203 1195.4 199.1 1196.4 195.3Z" fill="#5AF0FA"/>
<path d="M1178.98 192.298C1180.89 188.871 1179.65 184.548 1176.23 182.643C1172.8 180.737 1168.48 181.97 1166.57 185.397C1164.66 188.824 1165.9 193.146 1169.32 195.052C1172.75 196.958 1177.07 195.725 1178.98 192.298Z" fill="#5AF0FA"/>
<path d="M1185 203.8C1186 200 1189.9 197.8 1193.7 198.9C1197.5 200 1199.7 203.8 1198.6 207.6C1197.6 211.4 1193.7 213.6 1189.9 212.5C1186.2 211.4 1184 207.5 1185 203.8Z" fill="#5AF0FA"/>
<path d="M1171.4 200C1172.4 196.2 1176.3 194 1180.1 195.1C1183.9 196.1 1186.1 200 1185 203.8C1184 207.6 1180.1 209.8 1176.3 208.7C1172.5 207.7 1170.3 203.8 1171.4 200Z" fill="#5AF0FA"/>
<path d="M1086.7 171.21C1090.44 170.043 1092.53 166.063 1091.36 162.319C1090.2 158.575 1086.22 156.486 1082.47 157.653C1078.73 158.819 1076.64 162.8 1077.81 166.543C1078.97 170.287 1082.96 172.376 1086.7 171.21Z" fill="#5AF0FA"/>
<path d="M1047.3 154.1C1048.3 150.3 1052.2 148.1 1056 149.2C1059.8 150.3 1062 154.1 1060.9 157.9C1059.8 161.7 1056 163.9 1052.2 162.8C1048.5 161.7 1046.3 157.8 1047.3 154.1Z" fill="#5AF0FA"/>
<path d="M1066.3 171C1067.3 167.2 1071.2 165 1075 166.1C1078.8 167.1 1081 171 1079.9 174.8C1078.9 178.6 1075 180.8 1071.2 179.7C1067.5 178.6 1065.3 174.7 1066.3 171Z" fill="#5AF0FA"/>
<path d="M1052.7 167.2C1053.7 163.4 1057.6 161.2 1061.4 162.3C1065.2 163.4 1067.4 167.2 1066.3 171C1065.3 174.8 1061.4 177 1057.6 175.9C1053.9 174.8 1051.7 171 1052.7 167.2Z" fill="#5AF0FA"/>
<path d="M1085.8 252.5C1084.8 256.3 1080.9 258.5 1077.1 257.4C1073.3 256.4 1071.1 252.5 1072.2 248.7C1073.2 244.9 1077.1 242.7 1080.9 243.8C1084.7 244.9 1086.9 248.8 1085.8 252.5Z" fill="#5AF0FA"/>
<path d="M1113 260C1112 263.8 1108.1 266 1104.3 264.9C1100.5 263.9 1098.3 260 1099.4 256.2C1100.4 252.4 1104.3 250.2 1108.1 251.3C1111.9 252.4 1114.1 256.3 1113 260Z" fill="#5AF0FA"/>
<path d="M1099.4 256.3C1098.4 260.1 1094.5 262.3 1090.7 261.2C1086.9 260.2 1084.7 256.3 1085.8 252.5C1086.8 248.7 1090.7 246.5 1094.5 247.6C1098.3 248.6 1100.5 252.5 1099.4 256.3Z" fill="#5AF0FA"/>
<path d="M1126.6 263.8C1125.6 267.6 1121.7 269.8 1117.9 268.7C1114.1 267.7 1111.9 263.8 1113 260C1114 256.2 1117.9 254 1121.7 255.1C1125.5 256.2 1127.7 260.1 1126.6 263.8Z" fill="#5AF0FA"/>
<path d="M1140.3 267.6C1139.3 271.4 1135.4 273.6 1131.6 272.5C1127.8 271.5 1125.6 267.6 1126.7 263.8C1127.7 260 1131.6 257.8 1135.4 258.9C1139.1 259.9 1141.3 263.8 1140.3 267.6Z" fill="#5AF0FA"/>
<path d="M1146.6 280.3C1145.6 284.1 1141.7 286.3 1137.9 285.2C1134.1 284.2 1131.9 280.3 1133 276.5C1134 272.7 1137.9 270.5 1141.7 271.6C1145.4 272.6 1147.6 276.5 1146.6 280.3Z" fill="#5AF0FA"/>
<path d="M1073.7 260.1C1072.7 263.9 1068.8 266.1 1065 265C1061.2 263.9 1059 260.1 1060.1 256.3C1061.1 252.5 1065 250.3 1068.8 251.4C1072.6 252.5 1074.8 256.4 1073.7 260.1Z" fill="#5AF0FA"/>
<path d="M1254.6 55.2C1242.6 63.9 1231.4 72.9 1221.1 82.2C1215 87.7 1206.1 89.1 1198.6 85.7C1173.6 74.5 1147.8 68.1 1121.5 66.3C1113.4 65.7 1106.4 60.5 1103.5 52.9C1098.1 38.7 1090.9 23.6 1082.3 7.7C1083.1 7.5 1084 7.2 1084.8 7C1092.3 20.5 1098.8 33.5 1104 46C1106.3 51.6 1111.3 55.8 1117.3 57.3C1118.4 57.6 1119.5 57.8 1120.6 57.8C1134.9 58.9 1149.1 61.3 1162.8 64.7C1176.5 68.1 1190.1 72.8 1203.2 78.6C1204.2 79.1 1205.3 79.4 1206.4 79.7C1212.6 81.3 1219.1 79.8 1223.8 75.9C1232.7 68.2 1242.4 60.7 1252.8 53.4C1253.5 54 1254.1 54.6 1254.6 55.2Z" fill="#2D3246"/>
<path opacity="0.8" d="M1175.4 22.7001C1089.1 21.4001 1002.1 47.3001 972.2 150.4C969.2 160.9 961.5 164 965.1 148.2C966.5 142 967.6 135.7 969.3 129.4C993.6 39.8001 1086 -13.0999 1175.6 11.2001L1175.9 11.3001C1182.1 13.0001 1181.7 22.8001 1175.4 22.7001Z" fill="white"/>
<path opacity="0.1" d="M1292.7 219.8C1290.3 228.7 1287.2 237.3 1283.5 245.5C1282.6 247.6 1281.6 249.7 1280.5 251.7C1244.9 322 1162.9 359.9 1083 338.2C1070.1 334.7 1058 329.9 1046.8 323.9C1028.8 314.3 1035.4 287.3 1055.8 287.4C1076.6 287.5 1098.2 286.1 1112.5 281.2C1157.7 265.6 1196.2 233.2 1218.5 189.4C1219.7 187.1 1220.8 184.8 1221.8 182.5C1225.9 173.5 1229.3 164.1 1232 154.2C1240.6 122.4 1240.4 90.1 1232.8 60.1C1230.9 52.7 1240 47.6 1245.5 52.9C1289.2 94.5 1309.5 157.8 1292.7 219.8Z" fill="black"/>
<path opacity="0.8" d="M789.4 445.5C773 518.9 782.6 656.6 809.4 727.8C817.6 749.8 824.5 739.3 820.4 726C800 660.4 793.1 507.9 805.8 450.9C810 431.7 793.1 428.9 789.4 445.5Z" fill="white"/>
<path d="M1504.5 971.7C1496.7 929.8 1537.5 903.5 1559 913.6C1565.4 916.6 1570.1 922.8 1571.3 932.8C1575.5 967.5 1597.6 992.3 1632.7 1000.6C1632.8 1000.6 1633 1000.7 1633.1 1000.7C1635.2 1001.2 1636.6 1003.3 1636.3 1005.4C1632.3 1030.2 1613.6 1044.9 1592.6 1051.3C1591.2 1051.7 1589.7 1051.9 1588.3 1051.8C1549.8 1049 1510.6 1004.7 1504.5 971.7Z" fill="#A5A4AC"/>
<path d="M1533.5 994.9C1520.6 977.5 1514.5 952.2 1521.1 939.7C1527.7 927.3 1546.1 911 1559 913.6C1565.4 916.6 1570.1 922.8 1571.3 932.8C1575.5 967.5 1597.6 992.3 1632.7 1000.6C1633.7 1003.1 1632.5 1006.3 1628.6 1010.9C1622.6 1018.1 1603.8 1034.2 1589.8 1033.5C1575.9 1032.7 1552 1019.8 1533.5 994.9Z" fill="#4D4D4D"/>
<path d="M1514.31 915.3C1557.09 889.346 1556.73 810.542 1513.5 739.286C1470.27 668.031 1400.55 631.307 1357.77 657.261C1314.99 683.215 1315.35 762.019 1358.58 833.275C1401.81 904.53 1471.53 941.254 1514.31 915.3Z" fill="#D8D7DC"/>
<path opacity="0.1" d="M1475.7 715.7C1481.8 712.4 1483.4 704.3 1478.5 699.3C1439.5 659.3 1392.3 642.7 1360.5 662C1319.3 687 1319.6 763 1361.3 831.6C1386.4 873 1420.7 902.2 1453.1 913.5C1469 919.1 1482.9 901.4 1474.2 887C1474.1 886.9 1474.1 886.8 1474 886.7C1432.3 818 1432 742.1 1473.2 717.1C1474.1 716.6 1474.9 716.2 1475.7 715.7Z" fill="black"/>
<path opacity="0.8" d="M1511 874.6C1505.7 873 1502.4 867.8 1503.2 862.3C1507.3 834.4 1502.5 794.4 1491.6 767.1C1485.4 751.6 1497.8 748.5 1503.4 760.7C1520.8 798.6 1529.4 836.6 1525.5 865.4C1524.5 872.3 1517.6 876.6 1511 874.6Z" fill="white"/>
<path d="M1572.7 946.9C1584.8 924.2 1576.3 896 1553.6 883.9C1530.9 871.8 1502.7 880.3 1490.6 903C1490 904.1 1489.4 905.3 1488.9 906.5C1479.3 928.5 1488.1 954.6 1509.7 966.1C1511.2 966.9 1512.7 967.6 1514.3 968.2C1536.1 976.9 1561.4 968.1 1572.7 946.9Z" fill="#2D3246"/>
<path opacity="0.3" d="M1518.8 967.7C1495.1 960.9 1481.4 936.1 1488.2 912.4C1490.5 904.4 1494.8 897.6 1500.5 892.3C1500.3 893 1500.1 893.6 1499.8 894.3C1496.3 906.6 1498.3 919.2 1504.3 929.4C1509.6 938.4 1523.3 934.5 1523.6 924C1524 912.2 1528.6 899.6 1537 890.5C1540.2 887 1548.4 883.4 1555 887.4C1577.9 901.5 1579.2 928.1 1570.4 945.8C1561.5 963.8 1538.9 973.5 1518.8 967.7Z" fill="black"/>
<path d="M1545.3 938.6C1562.7 937.3 1593.1 955.7 1607 980.4C1610.9 987.2 1619.9 990.3 1627 986.9C1633.5 983.9 1640.1 981 1645.3 976.3C1650.2 971.9 1655.1 961.3 1657.4 954.6L1635.8 943.4C1618.5 919.7 1592.5 899.9 1564.7 905.4C1556.5 907 1549.6 910 1544 913.8L1537.1 915.1L1534.1 923.6C1531.2 930.3 1535.7 938.6 1543.7 938.5C1544.3 938.6 1544.8 938.6 1545.3 938.6Z" fill="#A5A4AC"/>
<path d="M1656.3 956.3C1648.8 963.2 1640.8 969 1631.6 973.9C1626.8 976.5 1620.7 974.8 1617.8 970.2C1602 944.8 1567.3 927.7 1549.1 931C1548.6 931.1 1548.1 931.2 1547.6 931.2C1538.2 932.2 1532.4 921.2 1538.2 913.7C1543.9 906.2 1552.9 899.5 1565.2 895.7C1598.8 885.4 1633.6 913.7 1652.7 942.1C1653.8 943.7 1655.9 946.9 1657.4 949.5C1658.6 951.8 1658.2 954.6 1656.3 956.3Z" fill="#D8D7DC"/>
<path opacity="0.8" d="M1557.8 902.6C1577.7 894.5 1606.7 894.7 1627.6 917.4C1648.6 940.2 1657.8 951.1 1650.4 957.4C1643 963.8 1637.2 967.1 1631.7 969.6C1626.2 972.1 1619.7 965.1 1623.3 957.5C1630.1 943.3 1618 920.3 1600.1 912.3C1582.2 904.4 1567.9 903.1 1561.3 906.1C1554.7 909.3 1553.3 904.4 1557.8 902.6Z" fill="white"/>
<path d="M692.3 578.3C707.1 583.1 723 575 727.8 560.3L784.6 385.7C789.4 370.9 781.3 355 766.6 350.2C751.8 345.4 735.9 353.5 731.1 368.2L674.3 542.8C669.4 557.6 677.5 573.5 692.3 578.3Z" fill="#2D3246"/>
<path opacity="0.3" d="M782.5 386.7L727.6 555.4C723.4 568.4 710.3 576.1 697.2 573.8C697.8 572.6 698.3 571.3 698.8 570L753.7 401.3C758.3 387 750.5 371.7 736.3 367C734.3 366.3 733.6 364 734.8 362.3C738.2 357.6 743 354.2 748.4 352.5C753.7 350.8 759.5 350.7 765.1 352.5C779.3 357 787.1 372.4 782.5 386.7Z" fill="black"/>
<path opacity="0.5" d="M698.1 488.4L731.5 383.4C731.9 382.1 733.3 381.4 734.6 381.8C735.8 382.2 736.5 383.6 736.1 384.8L703.2 489.8C702.9 490.8 701.9 491.5 700.8 491.5H700.3C698.7 491.5 697.6 490 698.1 488.4Z" fill="white"/>
<path d="M850.539 723.374C890.107 691.942 879.771 613.071 827.453 547.21C775.135 481.35 700.646 453.44 661.078 484.873C621.51 516.305 631.846 595.176 684.164 661.036C736.482 726.897 810.971 754.807 850.539 723.374Z" fill="#D8D7DC"/>
<path opacity="0.1" d="M845.8 717.4C824.3 734.5 791.8 733.1 758.7 717C743.4 709.6 741.5 688.9 754.9 678.4C755 678.3 755.1 678.2 755.2 678.2C792.8 648.3 783 573.4 733.2 510.8L727 503C720 494.2 729 481.5 739.6 485.5C768.4 496.1 798.7 518.5 823.8 550C873.6 612.6 883.4 687.5 845.8 717.4Z" fill="black"/>
<path opacity="0.8" d="M679.4 643.6C647.7 593 633.4 540 651.3 509.7C669.2 479.4 677.1 505.9 671.6 515.7C658.7 538.5 670.5 600.1 690.4 635.7C698.6 650.4 686.6 655.2 679.4 643.6Z" fill="white"/>
<path d="M984.7 729.1C986.5 734.3 987.9 742.8 984.9 746.1C983.9 747.1 983 748.1 982.1 749.1C973 758.4 964.4 764.8 952.2 771C950.3 772 948 771.2 947 769.4C932.9 743 896.1 725.3 877.8 729.1C869.3 730.9 864.2 726.5 863 719.7C860.8 707.5 870.7 687.4 895.1 679.2C929.9 667.5 967.3 700.1 984.7 729.1Z" fill="#A5A4AC"/>
<path d="M982 744.9C982.1 746.3 982.1 747.7 982 749.1C972.9 758.4 964.3 764.8 952.1 771C950.2 772 947.9 771.2 946.9 769.4C932.8 743 896 725.3 877.7 729.1C869.2 730.9 864.1 726.5 862.9 719.7C867.4 710 877 700.2 892.3 695C927.2 683.3 964.6 715.9 982 744.9Z" fill="#4D4D4D"/>
<path d="M887.8 736.6C868.6 754.1 838.9 752.8 821.4 733.6C803.9 714.5 805.2 684.7 824.4 667.2C825.4 666.3 826.4 665.5 827.4 664.7C846.6 649.8 874.2 651.9 890.9 670.1C892.1 671.4 893.2 672.7 894.1 674.1C908 693.2 905.7 720.2 887.8 736.6Z" fill="#2D3246"/>
<path opacity="0.3" d="M886.7 735C868.3 751.8 839.7 750.6 822.9 732.2C817.2 726 813.6 718.7 812 711C812.4 711.6 812.9 712.1 813.4 712.6C822.1 722.1 834 727.1 846 727.2C856.6 727.4 860.4 713.5 851.6 707.7C841.6 701.2 833.2 690.5 829.8 678.5C828.5 673.8 829.7 664.9 836.7 661.4C860.9 649.1 884.5 662 895.1 678.9C905.8 696.1 902.3 720.7 886.7 735Z" fill="black"/>
<path d="M1222.6 639.2C1313.84 639.2 1387.8 565.237 1387.8 474C1387.8 382.762 1313.84 308.8 1222.6 308.8C1131.36 308.8 1057.4 382.762 1057.4 474C1057.4 565.237 1131.36 639.2 1222.6 639.2Z" fill="#D9D9D9" fill-opacity="0.41"/>
<path fill-rule="evenodd" clip-rule="evenodd" d="M1089.7 567.3L1118.2 598.1L825 888C789.3 923.3 740.2 870.2 778.1 837.4L1089.7 567.3Z" fill="#333333"/>
<path fill-rule="evenodd" clip-rule="evenodd" d="M1084.8 575.3L1090.4 581.4L793.2 838.6C770.5 858.3 780.8 885.6 800 894.5C775.3 891.5 757.5 858.5 783.7 835.8L1084.8 575.3Z" fill="white"/>
<path fill-rule="evenodd" clip-rule="evenodd" d="M1108.9 599.8L1111.8 603.2L824.1 887.7C797.6 913.9 763.6 890.4 764.7 863.5C769.9 891.3 799.7 906.2 823.2 882.8L1108.9 599.8Z" fill="black"/>
<path fill-rule="evenodd" clip-rule="evenodd" d="M1081.9 565.4L1119.5 605.9L1091.7 631.7L1054.1 591.2L1081.9 565.4Z" fill="#333333"/>
<path fill-rule="evenodd" clip-rule="evenodd" d="M1081.5 571.7L1087.2 577.8L1062 599.5L1056.4 593.5L1081.5 571.7Z" fill="white"/>
<path fill-rule="evenodd" clip-rule="evenodd" d="M1086.4 625.6L1115 600.8L1118.3 604.4L1090.5 630.1L1086.4 625.6Z" fill="black"/>
<path fill-rule="evenodd" clip-rule="evenodd" d="M1085.4 625L1065.3 603.2L1081.8 628.3L1085.4 625Z" fill="black"/>
<path fill-rule="evenodd" clip-rule="evenodd" d="M1112.6 605.8L1107.8 610.4L1084.4 580.1L1111.7 589L1112.6 605.8Z" fill="black"/>
<path fill-rule="evenodd" clip-rule="evenodd" d="M1215.9 644C1185.4 643.4 1154.7 634.6 1127.1 616.9C1047.6 565.9 1024.5 460 1075.5 380.5C1105.9 333.1 1155.9 305.7 1208.2 302.2L1209.5 303C1159.5 308.2 1112.2 335.2 1082.9 380.8C1031.9 460.3 1055 566.2 1134.5 617.2C1159.8 633.5 1187.8 642.2 1215.9 644Z" fill="white"/>
<path fill-rule="evenodd" clip-rule="evenodd" d="M1347.3 357.3C1412 427.2 1407.8 536.3 1337.9 601C1268 665.7 1158.9 661.5 1094.2 591.6C1029.5 521.7 1033.7 412.6 1103.6 347.9C1173.5 283.2 1282.6 287.4 1347.3 357.3ZM1333.5 370.1C1391.1 432.4 1387.4 529.6 1325.2 587.2C1262.9 644.8 1165.7 641.1 1108.1 578.9C1050.5 516.6 1054.2 419.4 1116.4 361.8C1178.6 304.1 1275.9 307.8 1333.5 370.1Z" fill="#333333"/>
<path fill-rule="evenodd" clip-rule="evenodd" d="M1377.2 401.7C1407.9 467.8 1394.3 548.8 1338 601C1268.1 665.7 1159 661.5 1094.3 591.6C1080.2 576.4 1069.3 559.2 1061.8 541.1C1069.2 557 1079.1 572 1091.7 585.5C1156.4 655.4 1265.5 659.6 1335.4 594.9C1389.9 544.4 1404.4 466.6 1377.2 401.7Z" fill="black"/>
<path fill-rule="evenodd" clip-rule="evenodd" d="M1312.7 331.3C1391.8 382.1 1414.8 487.3 1364 566.4C1363.9 566.6 1363.7 566.8 1363.6 567C1412.9 489.5 1390.3 386.6 1312.9 337C1235.3 287.2 1132.1 309.8 1082.3 387.3C1032.5 464.9 1055.1 568.1 1132.6 617.9C1170 641.9 1213.3 649.1 1253.7 641.4C1212.1 649.6 1167.4 642.4 1128.8 617.7C1049.7 566.9 1026.7 461.7 1077.5 382.6C1128.3 303.5 1233.6 280.5 1312.7 331.3Z" fill="white"/>
<path opacity="0.7" fill-rule="evenodd" clip-rule="evenodd" d="M1087.5 500.4C1085.7 492 1084.7 483.3 1084.5 474.3C1083 399.1 1142.7 336.9 1217.9 335.3C1226.8 335.1 1235.6 335.8 1244.1 337.3C1156.4 340.3 1086.9 412.7 1087.5 500.4Z" fill="white"/>
<path d="M985.9 781.2L978.1 761.3C977.2 759.3 975.3 758 973.1 757.7C962.7 756.4 929.3 750.1 913.6 708.6C902.8 680 863.8 689.8 857.1 707.8C851.2 723.5 874.8 747.4 891.4 762.8C927 795.6 969.4 799.3 969.4 799.3L985.9 781.2Z" fill="#A5A4AC"/>
<path d="M838.1 765.8C849.8 801.1 900 844.2 942.5 840.4C943 840.4 943.5 840.2 944 840C966.6 830.1 985.5 811.2 986.2 783C986.3 780.6 984.5 778.6 982.1 778.3C942.5 774.6 914.7 751 905 713.7C892.8 667.1 819.1 708.2 838.1 765.8Z" fill="#E6E6E6"/>
<path opacity="0.1" d="M979.7 788C978.9 806.9 968.8 818.7 955.1 827.3C951.3 829.7 946.4 826 947.7 821.7C953.2 802.9 938.7 798.9 916 783.6C896.7 770.6 879.9 773.4 862 776.9C854.1 778.5 846 774 843.4 766.3V766.2C825.9 713.2 892.3 677 903.4 719.9C912.3 754 939 778.8 975.2 782.7C977.7 783 979.8 785.3 979.7 788Z" fill="black"/>
</g>
<defs>
<clipPath id="clip0_26_3">
<rect width="2073.3" height="1349.4" fill="white"/>
</clipPath>
</defs>
</svg>
