<svg width="863" height="661" viewBox="0 0 863 661" fill="none" xmlns="http://www.w3.org/2000/svg">
<g clip-path="url(#clip0_24_2)">
<path opacity="0.15" d="M431.4 660.6C669.435 660.6 862.4 650.974 862.4 639.1C862.4 627.226 669.435 617.6 431.4 617.6C193.365 617.6 0.400024 627.226 0.400024 639.1C0.400024 650.974 193.365 660.6 431.4 660.6Z" fill="black"/>
<path d="M301.9 541.1C301.9 541.1 338.1 463.6 291 383.8C243.9 304 155.8 300.6 155.8 300.6C155.8 300.6 129.4 370.4 168.9 457.1C208.3 543.7 301.9 541.1 301.9 541.1Z" fill="#FB7668"/>
<path d="M178.3 475L175.1 469.9L259.6 474.4L211.4 395.1L149.5 391.6L148.7 386.8L208.6 390.4L155.1 302.3L155.6 300.6H159.3L190.6 352.1L206.5 312.6L210.6 314.2L193.5 357L238.5 430.9L278 364.8L281.3 369.2L241.1 435.3L303.5 537.9L301.9 541.1L300.2 541.2L262.4 479.1L178.3 475Z" fill="#52298A"/>
<path d="M282.2 538.8C282.2 538.8 283.4 453.2 207.7 399.8C132 346.4 50.2 379.4 50.2 379.4C50.2 379.4 54.8 453.9 126.3 516.7C197.9 579.6 282.2 538.8 282.2 538.8Z" fill="#FF9A8A"/>
<path d="M142.4 529.2L137.4 525.9L216.3 495.3L139.8 442.8L81.9 465L79.3 460.9L135.3 439.7L50.3 381.3L50.1 379.5L53.5 378L103.2 412.1L101.4 369.5L105.9 369.3L107.8 415.3L179.1 464.3L188 387.8L192.9 390.5L183.4 467.2L282.3 535.2L282.2 538.8L280.7 539.6L220.8 498.4L142.4 529.2Z" fill="#52298A"/>
<path d="M278.6 545.5C278.6 545.5 241.6 468.3 150 454.2C58.4 440.1 0 505.9 0 505.9C0 505.9 37.2 570.5 129.3 595C221.3 619.5 278.6 545.5 278.6 545.5Z" fill="#FCC072"/>
<path d="M149.2 599.1L143.2 598.4L200.3 535.9L108.5 522.8L66.5 568.5L62.3 566L103 522.1L1 507.6L0 506.1L2.3 503.2L62 511.7L41.5 474.3L45.4 472.1L67.6 512.5L153.3 524.6L127.2 452.2L132.8 452.4L158.3 525.4L277.2 542.2L278.6 545.5L277.7 546.9L205.7 536.7L149.2 599.1Z" fill="#52298A"/>
<path fill-rule="evenodd" clip-rule="evenodd" d="M649.3 406.2L652.5 411.9C655.7 410.1 658.8 408.2 662 406.3L658.6 400.8C655.5 402.6 652.4 404.4 649.3 406.2Z" fill="black"/>
<path fill-rule="evenodd" clip-rule="evenodd" d="M632.2 415.1L635 421C638.3 419.4 641.6 417.8 644.8 416.1L641.8 410.3C638.6 412 635.4 413.6 632.2 415.1Z" fill="black"/>
<path fill-rule="evenodd" clip-rule="evenodd" d="M614.5 422.7L616.8 428.8C620.3 427.5 623.7 426.1 627 424.6L624.4 418.6C621.2 420.1 617.9 421.5 614.5 422.7Z" fill="black"/>
<path fill-rule="evenodd" clip-rule="evenodd" d="M695.7 372L700.2 376.7C701.6 375.4 702.8 374.1 704.1 372.8C705.4 371.5 706.7 370.1 707.9 368.8L703.1 364.4C701.9 365.7 700.7 367 699.4 368.3C698.3 369.5 697.1 370.8 695.7 372Z" fill="#52298A"/>
<path fill-rule="evenodd" clip-rule="evenodd" d="M681.3 384.6L685.4 389.7C686.8 388.5 688.3 387.4 689.7 386.2C691.1 385 692.5 383.8 693.9 382.6L689.6 377.7C688.3 378.9 686.9 380 685.5 381.2C684.1 382.4 682.7 383.5 681.3 384.6Z" fill="black"/>
<path fill-rule="evenodd" clip-rule="evenodd" d="M665.8 396L669.4 401.4L674 398.3L678.4 395L674.6 389.8L670.2 392.9L665.8 396Z" fill="black"/>
<path fill-rule="evenodd" clip-rule="evenodd" d="M728.3 325.4L734.5 327.4L735 326L735.4 324.6L736.1 321.8C736.4 320.9 736.5 319.9 736.7 318.9L737.2 316L730.7 315.2L730.3 317.8C730.2 318.7 730.1 319.5 729.8 320.4L729.2 322.9L728.9 324.2L728.3 325.4Z" fill="#52298A"/>
<path fill-rule="evenodd" clip-rule="evenodd" d="M720.2 342.5L725.7 345.9C726.7 344.3 727.6 342.7 728.6 341C729.5 339.3 730.4 337.6 731.2 335.9L725.3 333.2C724.5 334.8 723.7 336.3 722.9 337.9C722 339.4 721.1 340.9 720.2 342.5Z" fill="#52298A"/>
<path fill-rule="evenodd" clip-rule="evenodd" d="M708.9 357.8L713.9 362L717.4 357.7C718.6 356.2 719.6 354.7 720.7 353.2L715.4 349.4C714.3 350.8 713.3 352.3 712.2 353.7L708.9 357.8Z" fill="#52298A"/>
<path fill-rule="evenodd" clip-rule="evenodd" d="M717.3 272.5L722.6 268.7C720.4 265.6 718 262.8 715.6 259.9L710.7 264.2C713 266.9 715.3 269.7 717.3 272.5Z" fill="#52298A"/>
<path fill-rule="evenodd" clip-rule="evenodd" d="M726.7 288.9L732.7 286.4C732.4 285.5 731.9 284.6 731.5 283.8L730.3 281.2C729.9 280.3 729.4 279.5 728.9 278.7L727.5 276.2L721.9 279.5L723.2 281.8C723.6 282.6 724.1 283.3 724.4 284.1L725.5 286.5C726 287.3 726.4 288.1 726.7 288.9Z" fill="#52298A"/>
<path fill-rule="evenodd" clip-rule="evenodd" d="M730.8 306.9L737.3 306.6C737.3 305.6 737.2 304.7 737.1 303.7L736.8 300.8C736.7 299.8 736.4 298.9 736.2 297.9C736 296.9 735.8 296 735.6 295L729.3 296.6C729.5 297.4 729.7 298.3 729.8 299.1C730 300 730.2 300.8 730.3 301.6L730.6 304.2C730.7 305.2 730.9 306.1 730.8 306.9Z" fill="#52298A"/>
<path fill-rule="evenodd" clip-rule="evenodd" d="M675.7 232.7L679.6 227.5C676.7 225.3 673.7 223.1 670.8 221L667 226.3C670 228.4 672.9 230.5 675.7 232.7Z" fill="#52298A"/>
<path fill-rule="evenodd" clip-rule="evenodd" d="M690.8 244.8L695 239.9L690.8 236.4C689.4 235.2 687.9 234.1 686.5 233L682.4 238.1C683.8 239.2 685.2 240.3 686.6 241.5L690.8 244.8Z" fill="#52298A"/>
<path fill-rule="evenodd" clip-rule="evenodd" d="M704.8 257.9L709.5 253.4C706.9 250.7 704.2 248.2 701.6 245.7L697.2 250.5C699.7 252.9 702.4 255.3 704.8 257.9Z" fill="#52298A"/>
<path fill-rule="evenodd" clip-rule="evenodd" d="M627.5 200.1L631 194.5L626.4 191.7L621.7 188.8L618.3 194.4L622.9 197.2L627.5 200.1Z" fill="#52298A"/>
<path fill-rule="evenodd" clip-rule="evenodd" d="M643.9 210.5L647.5 205.1C644.5 203.1 641.4 201.2 638.3 199.2L634.8 204.7C637.8 206.6 640.9 208.5 643.9 210.5Z" fill="#52298A"/>
<path fill-rule="evenodd" clip-rule="evenodd" d="M659.9 221.3L663.6 216C660.6 213.9 657.6 211.9 654.6 209.8L651 215.2C654 217.2 657 219.2 659.9 221.3Z" fill="#52298A"/>
<path fill-rule="evenodd" clip-rule="evenodd" d="M577.8 169.3L581.3 163.8L572.3 157.9L568.7 163.4L577.8 169.3Z" fill="#52298A"/>
<path fill-rule="evenodd" clip-rule="evenodd" d="M594.3 179.7L597.7 174.2L588.6 168.4L585.1 173.9L594.3 179.7Z" fill="#52298A"/>
<path fill-rule="evenodd" clip-rule="evenodd" d="M610.9 189.9L614.3 184.3C611.2 182.4 608.1 180.6 605.1 178.7L601.7 184.2C604.7 186.1 607.8 188 610.9 189.9Z" fill="#52298A"/>
<path fill-rule="evenodd" clip-rule="evenodd" d="M529.9 135.4L534 130.4C532.6 129.3 531.3 128.1 529.9 127L527.9 125.3L525.9 123.5L521.6 128.4L523.6 130.2L525.7 132C527.1 133 528.5 134.2 529.9 135.4Z" fill="#52298A"/>
<path fill-rule="evenodd" clip-rule="evenodd" d="M545.5 147.3L549.3 142L545 138.8L540.7 135.6L536.7 140.7L541.1 144L545.5 147.3Z" fill="#52298A"/>
<path fill-rule="evenodd" clip-rule="evenodd" d="M561.4 158.5L565.1 153.1C562.1 151.1 559.2 149 556.2 147L552.5 152.3C555.4 154.4 558.4 156.4 561.4 158.5Z" fill="#52298A"/>
<path fill-rule="evenodd" clip-rule="evenodd" d="M492.3 89.9L498.5 87.8C497.9 86.3 497.6 84.7 497.2 83.1C497 82.3 497 81.5 496.8 80.7L496.6 79.5C496.6 79.1 496.6 78.7 496.5 78.3L490 78.7C490 79.2 490 79.7 490.1 80.1L490.3 81.5C490.5 82.4 490.6 83.4 490.8 84.3C491.2 86.3 491.6 88.2 492.3 89.9Z" fill="#52298A"/>
<path fill-rule="evenodd" clip-rule="evenodd" d="M502 107.5L507.2 103.6C506.2 102.2 505.1 100.8 504.3 99.4L502.9 97.2C502.5 96.5 502.1 95.7 501.7 95L496 98.1C496.5 98.9 496.9 99.8 497.4 100.6L498.9 103C499.7 104.6 500.9 106 502 107.5Z" fill="#52298A"/>
<path fill-rule="evenodd" clip-rule="evenodd" d="M515.1 122.2L519.6 117.5C518.3 116.3 517.1 115 515.9 113.8C514.6 112.6 513.5 111.2 512.3 109.9L507.4 114.2C508.6 115.6 509.8 117 511.1 118.3C512.5 119.6 513.8 121 515.1 122.2Z" fill="#52298A"/>
<path fill-rule="evenodd" clip-rule="evenodd" d="M511.8 35.9L515.4 41.3C518 39.5 520.9 38.3 524 37.5L522.4 31.2C518.6 32.2 515 33.8 511.8 35.9Z" fill="#52298A"/>
<path fill-rule="evenodd" clip-rule="evenodd" d="M498 50.8L503.5 54.3C505.3 51.4 507.3 48.7 509.5 46.3L504.8 41.8C502.2 44.6 500 47.7 498 50.8Z" fill="#52298A"/>
<path fill-rule="evenodd" clip-rule="evenodd" d="M490.5 69.5L496.9 70.6L497.1 69.4L497.4 68.2C497.6 67.4 497.8 66.6 498 65.8L498.8 63.5C498.9 63.1 499.1 62.7 499.2 62.3L499.7 61.2L493.8 58.6L493.2 59.9C493 60.3 492.9 60.8 492.7 61.2L491.7 63.9C491.4 64.8 491.2 65.7 491 66.7L490.6 68.1L490.5 69.5Z" fill="#52298A"/>
<path fill-rule="evenodd" clip-rule="evenodd" d="M568.8 44L565.3 49.5C568.3 51.4 571.2 53.4 574 55.5L577.9 50.3C574.9 48.1 571.9 46 568.8 44Z" fill="#52298A"/>
<path fill-rule="evenodd" clip-rule="evenodd" d="M551.3 34.7L548.8 40.7C552 42 555.1 43.5 558.1 45.2L561.2 39.5C558 37.7 554.7 36.1 551.3 34.7Z" fill="#52298A"/>
<path fill-rule="evenodd" clip-rule="evenodd" d="M531.6 30.2L531.5 36.7C534.7 36.8 538 37.3 541.2 38.1L542.9 31.8C539.3 30.9 535.5 30.3 531.6 30.2Z" fill="#52298A"/>
<path fill-rule="evenodd" clip-rule="evenodd" d="M614.1 81.5L609.6 86.2L617.4 93.7L621.9 89L614.1 81.5Z" fill="#52298A"/>
<path fill-rule="evenodd" clip-rule="evenodd" d="M599.8 68.2L595.5 73.1C598.2 75.5 600.8 77.9 603.5 80.4L607.9 75.6C605.1 73.1 602.5 70.7 599.8 68.2Z" fill="#52298A"/>
<path fill-rule="evenodd" clip-rule="evenodd" d="M584.9 55.6L580.9 60.7C583.7 62.9 586.4 65.2 589.2 67.5L593.4 62.6C590.5 60.2 587.7 57.9 584.9 55.6Z" fill="#52298A"/>
<path fill-rule="evenodd" clip-rule="evenodd" d="M658.8 116.2L657.1 122.5C658 122.8 659 122.9 660 123.1C661 123.3 661.9 123.5 662.9 123.6L665.8 124C666.8 124.1 667.7 124.1 668.7 124.2L669 117.7C668.1 117.6 667.3 117.6 666.4 117.6L663.8 117.3C662.9 117.2 662.1 117 661.3 116.8C660.5 116.5 659.7 116.4 658.8 116.2Z" fill="#52298A"/>
<path fill-rule="evenodd" clip-rule="evenodd" d="M642.3 108L638.4 113.2L640.8 114.9C641.6 115.5 642.5 115.9 643.3 116.5L644.6 117.3L645.2 117.7L645.9 118L648.5 119.3L651.2 113.4L648.9 112.2L648.3 111.9L647.7 111.6L646.6 110.9C645.9 110.4 645.1 110 644.4 109.5L642.3 108Z" fill="#52298A"/>
<path fill-rule="evenodd" clip-rule="evenodd" d="M628.2 95.1L623.7 99.8L631.6 107.3L636 102.6L628.2 95.1Z" fill="#52298A"/>
<path fill-rule="evenodd" clip-rule="evenodd" d="M712.6 104.1L716 109.6C719.2 107.6 722.3 105.5 725.3 103.2L721.4 98C718.5 100.3 715.6 102.3 712.6 104.1Z" fill="black"/>
<path fill-rule="evenodd" clip-rule="evenodd" d="M695.6 112.7L698 118.8C701.5 117.4 704.9 115.8 708.3 114.1L705.3 108.3C702.1 109.9 698.9 111.5 695.6 112.7Z" fill="#52298A"/>
<path fill-rule="evenodd" clip-rule="evenodd" d="M677.4 117.4L678.1 123.9C681.9 123.4 685.7 122.7 689.4 121.7L687.7 115.4C684.3 116.3 680.9 116.9 677.4 117.4Z" fill="#52298A"/>
<path d="M717.6 47.1L723.7 73.9L838.4 98.7L717.6 47.1Z" fill="#9462ED"/>
<path d="M707.5 114.2L723.7 73.9L838.4 98.7L729.7 97.7L707.5 114.2Z" fill="#52298A"/>
<path d="M741.8 139.3L729.7 97.7L838.4 98.7L741.8 139.3Z" fill="#9462ED"/>
<path d="M666 294.2H223.4V566.6H666V294.2Z" fill="#FDE3CA"/>
<path d="M666 294.2H223.4V362.3H666V294.2Z" fill="#FB7668"/>
<path d="M660.9 260.1H228.6C207 260.1 189.4 277.6 189.4 299.2V609.1C189.4 613.8 193.2 617.6 197.9 617.6H691.6C696.3 617.6 700.1 613.8 700.1 609.1V299.2C700.1 277.7 682.5 260.1 660.9 260.1ZM223.4 558V302.7C223.4 298 227.2 294.2 231.9 294.2H657.5C662.2 294.2 666 298 666 302.7V558C666 562.7 662.2 566.5 657.5 566.5H232C227.3 566.5 223.4 562.7 223.4 558Z" fill="#52298A"/>
<path d="M708.6 600.6H180.9C176.2 600.6 172.4 604.4 172.4 609.1C172.4 627.9 187.7 643.2 206.5 643.2H683C701.8 643.2 717.1 627.9 717.1 609.1C717.1 604.4 713.3 600.6 708.6 600.6Z" fill="#FB7668"/>
<path d="M410.7 541H266C261.3 541 257.5 537.2 257.5 532.5V396.3C257.5 391.6 261.3 387.8 266 387.8H410.7C415.4 387.8 419.2 391.6 419.2 396.3V532.5C419.2 537.2 415.4 541 410.7 541Z" fill="#52298A"/>
<path d="M615 404.8H453.3C448.6 404.8 444.8 401 444.8 396.3C444.8 391.6 448.6 387.8 453.3 387.8H615C619.7 387.8 623.5 391.6 623.5 396.3C623.5 401 619.7 404.8 615 404.8Z" fill="#52298A"/>
<path d="M615 438.9H453.3C448.6 438.9 444.8 435.1 444.8 430.4C444.8 425.7 448.6 421.9 453.3 421.9H615C619.7 421.9 623.5 425.7 623.5 430.4C623.5 435.1 619.7 438.9 615 438.9Z" fill="#52298A"/>
<path d="M615 472.9H453.3C448.6 472.9 444.8 469.1 444.8 464.4C444.8 459.7 448.6 455.9 453.3 455.9H615C619.7 455.9 623.5 459.7 623.5 464.4C623.5 469.1 619.7 472.9 615 472.9Z" fill="#52298A"/>
<path d="M615 507H453.3C448.6 507 444.8 503.2 444.8 498.5C444.8 493.8 448.6 490 453.3 490H615C619.7 490 623.5 493.8 623.5 498.5C623.5 503.2 619.7 507 615 507Z" fill="#52298A"/>
<path d="M615 541H453.3C448.6 541 444.8 537.2 444.8 532.5C444.8 527.8 448.6 524 453.3 524H615C619.7 524 623.5 527.8 623.5 532.5C623.5 537.2 619.7 541 615 541Z" fill="#52298A"/>
<path d="M410.7 617.6H478.8C488.2 617.6 495.8 610 495.8 600.6H393.7C393.7 610 401.3 617.6 410.7 617.6Z" fill="#52298A"/>
<path d="M284.8 161.9L280.1 183.5C278.7 190.2 281 197.1 286.2 201.6L303.2 216L314 207.1L302.5 189.2L309.5 172.6L284.8 161.9Z" fill="#C69C6D"/>
<path d="M383.6 171.5L405.9 161.9L411.5 184.3C413.2 190.9 411 197.9 406 202.5L388.7 218.3V189L383.6 171.5Z" fill="#C69C6D"/>
<path d="M333.2 125.6L345.3 142.8L354.9 125.6L376.4 127.6C384.1 128.3 390.8 132.9 394.4 139.7L405.9 161.9L383.6 171.5L388.7 184.3V218.4L343.4 239.5L314.7 223.2L302.6 189.4L309.6 172.8L284.7 162L299.5 138.5C303.1 132.8 309 129 315.6 128.1L333.2 125.6Z" fill="#7762EF"/>
<path d="M296.9 223.1V184.2H395.1V223.1L343.4 239.4L296.9 223.1Z" fill="#2C1E56"/>
<path d="M391.9 266.5C391.9 266.5 293.7 255.7 259.3 237.8C224.9 219.9 261.9 202.7 293.7 212.9C325.6 223.1 391.9 248 391.9 248V266.5Z" fill="#3D38A0"/>
<path d="M301.4 266.5L299.1 250.9C299.1 250.9 411.7 199.5 442.3 215.5C472.9 231.4 391.3 260.7 301.4 266.5Z" fill="#3D38A0"/>
<path d="M299.1 250.9L301.3 266.5C301.3 266.5 260.8 271.6 257.6 270C254.4 268.4 243.9 261.4 250.6 254.7C257.3 248 289.9 247.7 299.1 250.9Z" fill="#2C1E56"/>
<path d="M393.2 252.5L391 267.5C391 267.5 431.5 272.6 434.7 271C437.9 269.4 448.4 262.4 441.7 255.7C435 248.9 402.5 249.3 393.2 252.5Z" fill="#2C1E56"/>
<path d="M333.2 125.6L345.4 146.3L354.9 125.6V110.9H333.2V125.6Z" fill="#A67C52"/>
<path d="M339.4 119.4C339.4 119.4 324.3 109.9 322.6 98.2C320.9 86.5 320.9 76.9 324.8 76C328.7 75.1 355 69.1 356.5 69.9C358 70.7 363.4 85.6 363.7 91.1C364.2 102 352.6 118.5 349.2 120.4C345.8 122.3 339.4 119.4 339.4 119.4Z" fill="#C69C6D"/>
<path d="M322.8 99.5C322.8 99.5 317 91.5 316 82.2C315 73 319.2 64.1 322.7 62.4C342.5 52.8 350.1 65 367 58.6C367 58.6 365.5 65.9 363.8 70.4C360.6 79 362.7 85.7 362.7 85.7C362.7 85.7 357.5 77.4 353 76.1C348.5 74.8 332 80.2 328.1 76.1C328.1 76.2 320.4 77.2 322.8 99.5Z" fill="#2C1E56"/>
<path d="M728.2 565L747.7 639.8H807.2L825.1 565H728.2Z" fill="#FCC072"/>
<path d="M823.3 474C823.3 466.2 819.4 458.9 812.9 454.5C820 445.6 818.5 432.7 809.7 425.6C806.1 422.7 801.5 421.1 796.9 421.1C796.6 421.1 796.3 421.1 796 421.1C799.3 410.2 793.1 398.8 782.3 395.5C771.4 392.2 760 398.4 756.7 409.2C755.5 413.1 755.5 417.2 756.7 421.1C756.4 421.1 756.1 421.1 755.8 421.1C744.5 421.1 735.3 430.3 735.2 441.6C735.2 446.3 736.8 450.8 739.7 454.4C728.9 461.6 726.1 476.2 733.3 487C735 489.5 737.2 491.7 739.7 493.4C732.6 502.3 734.1 515.2 742.9 522.3C746.5 525.2 751.1 526.8 755.7 526.8H796.8C808.1 526.8 817.3 517.6 817.4 506.3C817.4 501.6 815.8 497.1 812.9 493.5C819.4 489.1 823.3 481.8 823.3 474Z" fill="#FB7668"/>
<path d="M799 460.1C797.9 459 796 459 794.8 460.1L779.3 475.6V432.8C779.3 431.2 778 429.9 776.4 429.9C774.8 429.9 773.5 431.2 773.5 432.8V453.6L760.2 440.3C759 439.2 757.2 439.2 756 440.4C754.9 441.5 754.9 443.3 756 444.5L773.5 462V502.2L760.9 489.6C759.7 488.5 757.9 488.5 756.7 489.7C755.6 490.8 755.6 492.6 756.7 493.8L773.5 510.6V565C773.5 566.6 774.8 567.9 776.4 567.9C778 567.9 779.3 566.6 779.3 565V483.8C779.5 483.7 779.7 483.6 779.9 483.4L799 464.3C800.1 463.1 800.1 461.3 799 460.1Z" fill="#52298A"/>
<path d="M826.3 567.9H726.5C724.9 567.9 723.6 566.6 723.6 565C723.6 563.4 724.9 562.1 726.5 562.1H826.3C827.9 562.1 829.2 563.4 829.2 565C829.2 566.6 827.9 567.9 826.3 567.9Z" fill="#52298A"/>
</g>
<defs>
<clipPath id="clip0_24_2">
<rect width="862.4" height="660.6" fill="white"/>
</clipPath>
</defs>
</svg>
