<svg width="426" height="458" viewBox="0 0 426 458" fill="none" xmlns="http://www.w3.org/2000/svg">
<path d="M417.954 220.859C371.618 220.706 322.978 211.234 286.37 181.026C255.599 155.63 237.32 119.586 228.463 81.1855C222.933 57.2239 220.936 32.6991 221.09 8.17431C221.09 3.05431 216.994 0.801514 213 0.801514C209.007 0.801514 204.911 3.05431 204.911 8.17431C205.115 50.0047 199.227 93.2687 179.72 130.85C161.135 166.638 130.517 193.723 92.5778 207.496C65.493 217.326 36.7186 220.808 8.04663 220.91C2.92663 220.91 0.673828 225.058 0.673828 229.051C0.673828 233.045 2.92663 237.192 8.04663 237.192C54.3826 237.345 103.023 246.818 139.631 277.026C170.402 302.421 188.68 338.465 197.538 376.865C203.067 400.827 205.013 425.352 204.911 449.877C204.911 454.997 209.007 457.25 213 457.25C216.994 457.25 221.09 454.997 221.09 449.877C220.885 408.046 226.773 364.782 246.28 327.202C264.866 291.413 295.483 264.328 333.423 250.555C360.507 240.725 389.282 237.243 417.954 237.141C423.074 237.141 425.327 232.994 425.327 229C425.327 225.006 423.074 220.859 417.954 220.859ZM277.103 264.789C243.771 291.566 223.445 330.888 213.819 372.001C213.512 373.23 213.307 374.51 213 375.739C208.648 355.976 202.095 336.776 192.674 318.805C172.296 279.893 138.504 251.118 97.3906 236.014C89.6082 233.147 81.621 230.843 73.5314 228.949C100.719 222.446 126.523 211.131 148.847 193.211C182.178 166.434 202.504 127.112 212.13 85.9983C212.437 84.7695 212.642 83.4895 212.949 82.2607C217.301 102.024 223.855 121.224 233.275 139.195C253.653 178.107 287.445 206.882 328.559 221.986C336.341 224.853 344.328 227.157 352.418 229.051C325.231 235.605 299.426 246.869 277.103 264.789Z" fill="#5138EE"/>
</svg>
